<svg version="1.2" xmlns="http://www.w3.org/2000/svg" viewBox="0 0 512 274" width="512" height="274">
	<title>logo-les-roses-du-vercors-blanc-sans-baseline-svg</title>
	<style>
		.s0 { fill: #000000 } 
	</style>
	<path fill-rule="evenodd" class="s0" d="m363.7 171.6c-5.9-7-11.7-13.9-17.8-21.1-5.1 4.8-10 9.5-15 14.2-1.3 1.3-2.8 2.4-4.1 3.7-2.9 2.9-5.8 5.9-8.6 8.9-3.7 3.9-7.3 7.9-10.9 11.9-2.6 2.8-5.3 5.6-7.9 8.4-0.9 1-2 1.3-3.2 1.1-1.4-0.2-2.8-0.5-4.2-0.6-0.5 0-1 0-1.4 0.2-0.7-0.8-1.3-1.7-2-2.6 0 0-0.2 0.2-0.3 0.2 0.3 0.8 0.6 1.7 0.9 2.5-2.8 0.9-5.4 1.1-8.3 0.8-3.2-0.4-6.4-0.4-9.6-0.7-0.4 0-0.8-0.5-1.1-0.6-1.1 0.2-2.1 0.4-3 0.4h-17.8c-0.9 0-1.7-0.4-2.8 0.4-0.8 0.5-2.5-0.3-4.2-0.5 0 0-0.3 0.4-0.7 0.9-0.8-0.6-1.5-1.1-2.2-1.6 0 0-0.2 0.3-0.3 0.4l1 1c0 0.2-0.2 0.3-0.2 0.3q-4.1 0-8.1 0c-0.4 0-0.7-0.5-1-0.8-0.3-0.3-0.6-0.6-1.2-1 0 0.8 0 1.2-0.2 1.8-1.1-2-4.5-2.5-7.6-1.5v-0.5c-0.9 0-1.8 0-2.6-0.4-2.3-0.9-4.2 0.2-6.2 0.9-0.3 0-0.8-0.2-1.2-0.4-1.1-0.3-2.1-0.8-3.2-0.9-5.8-0.2-11.5-0.3-17.3-0.5-6.6-0.3-13.3-0.6-20.1-1-0.2-0.3-0.5-0.8-0.9-1.4-1.3 2.4-2.4 2.7-5.5 1.8-1.1-0.3-2.2-0.5-3.3-0.5-1.9 0-2.8-1.2-1.5-2.4 2.5-2.2 3.1-6.1 6.5-7.5 0.5-0.2 0.8-0.9 1.1-1.4 2-3.9 4.3-7.5 7.5-10.5 4.8-4.4 7.9-9.9 11.4-15.3 1.7-2.6 3.4-5.2 5.9-7.4 3.5-3.2 6.8-6.7 9.3-10.9 0.7-1.2 3-1.6 4.7-2.2 0.9-0.3 1.8-0.6 2.8-0.6 1 0 2.3 0 3.4 0 1.1 0 2.2 0.3 3.4 0.5 2.1 0.3 4-0.7 6.3 0 2.2 0.8 4.8 0.4 7.3 0.4h15.7c5.9 0 11.9 0 17.8 0.2 3.9 0 7.9 0.7 11.7 0 3.8-0.7 7 1.7 10.6 1 1.8-0.4 3.6-0.6 5.4-0.8 0.4 0 1.1 0.2 1.2 0.4 0.6 1.2 1.6 1 2.6 1 2.5 0.2 5 0.5 7.5 0.6 1 0 2-0.2 3 0 4.2 0.3 8.3 0.8 12.5 0.9 6.7 0.2 13.4 0 20.2 0 6.8 0 2.6 0.3 3.9 0.3 2.6 0 5.2-0.2 7.7 0 1.4 0 2.9 0.7 4.1 1.5 3.4 2.1 6.2 5 8.6 8.2 2.1 2.8 4.4 5.5 6.5 8.3 2.1 2.7 4.3 5.2 6.2 8 2.6 3.7 4.9 7.5 7.3 11.3 1.4 2.2 2.9 4.3 3.9 6.7 1.3 3.2 3.5 5.4 5.7 7.9 1.6 1.8 2.5 4.2 3.4 6.4 0.8 1.8-1.5 2.4-2.1 3.7-0.2 0.4-1.5 0.4-2.3 0.2-3.4-0.7-5.3-3.3-6.7-6-1.3-2.6-3.2-4.7-5-7-2.8-3.6-5.4-7.3-8.3-10.8-1.8-2.3-4-4.3-5.9-6.6-0.5-0.6-0.8-1.4-1.2-2.1zm-108.7 12.6c-1-0.9-1.6-1.4-2.2-2 0 0.5-0.2 1.1-0.4 1.6-0.5-0.3-1.1-0.8-2-1.3 0.4 3-3.2 1.5-3.6 3.7 3.1 0 6.2 0.9 8.8-1.6v-0.5q-0.4 0-0.6 0zm133.6 9c-0.2 0-0.4 0.2-0.5 0.3 0.5 0.8 0.9 1.6 1.5 2.3 1.2 1.4 2.5 2.8 1.7 5-0.2 0.6 0 1.4 0.2 2.4 1.1-1 2.9-1.2 2.2-3.2-0.9-2.9-2.7-5-5.1-6.7zm-149.2-13.7c-1.6 0.3-3.1 0.5-4.8 0.8 0.3 0.8 0.9 1.2 1.7 1.3 1.7 0 2.3 1.2 1.6 2.7 0 0.3 0 0.6 0 1.2 1.9-1.2 3.5-2.1 5.1-3.1 0-0.2-0.2-0.4-0.3-0.6-0.6 0.2-1.3 0.5-1.9 0.5-0.6 0-1.3-0.5-2-0.8 0.2-0.5 0.4-0.9 0.8-1.9zm-7.9-5.4c0.5 0.6 1 1.5 1.2 1.4 0.8-0.2 1.7-0.6 2.3-1.2 1.2-1.4 2.1-2.9 3.1-4.5 0.3-0.5 0.2-1.2 0.2-1.9-1.5 1.4-2.8 2.5-4.1 3.6-0.2 0-0.3 0.5-0.3 0.6 0.7 2.1-1 1.6-2.4 2zm122.7-20.2l0.5-0.4c-0.9-1.9-1.8-3.8-2.8-5.7-0.4-0.7-1.1-1.4-1.8-0.5-0.3 0.4-0.2 1.4 0 1.9 0.9 1.4 1.9 2.7 2.9 4 0.3 0.3 0.7 0.5 1.1 0.7zm-84.2-1.6c-0.2 0.8-0.4 1.6-0.6 2.3 2.5 0 5.7-2 6.7-3.9-2.4-1.1-3.5 0.8-4.7 2.2-0.5-0.2-0.9-0.4-1.4-0.6zm-73 27.8v0.4c0.4 0 1 0 1.3-0.4 1.5-1.5 2.9-3 4.2-4.6 0.4-0.5 0.7-1.2 1.1-1.8-0.2 0-0.4-0.3-0.6-0.4-0.9 1.2-1.9 2.3-2.8 3.6-0.8 1.3-1.7 2.3-3.4 2.3-1.7 0-2 0.3-2.3 2.1 1-0.5 1.7-0.9 2.3-1.2zm74.5 12.3v-0.8c-3.4-0.7-6.8 0.3-10.2 0.2v0.6zm-73.1-2.7c-2.7 0-5.5-0.3-8.2-0.4v0.7c2.7 0.2 5.5 0.5 8.2 0.7zm22.2-39.8c1.3 0.3 2.2 0.5 3.5 0.7 0-0.8 0.3-2.1 0-2.3-1.3-0.7-2.3 0.3-3.5 1.6zm-10.6 40.7v-0.5h-7c2.3 1.3 4.7 0.7 7 0.5zm44.9-14.2c1.7-1 3.1-1.8 4.6-2.7-1.7-1-4.2 0.4-4.6 2.7zm22.7-3.2c-2.1-0.8-3.2 0.7-5.1 1.3 1.8 0.7 3.9 0 5.1-1.3zm-63.4 7.3c1.2 0.7 2.1 0.2 2.4-0.7 0.3-0.8 0-1.8 0-2.7h-0.6c-0.6 1.1-1.2 2.1-1.8 3.3zm-38.7-1.9c0.9-0.6 2.3-1.7 4-2.9-2 0-3.8 1.8-4 2.9zm12.3-13.9c1.8-1.1 3.2-2.1 3.4-4.6-1.3 1.4-2.2 2.4-3.2 3.4 0 0-0.3-0.2-0.4-0.3 0 0.4 0 0.8 0.2 1.5zm97.1 7.8c1.2-1.1 2.1-2 3.1-2.8 0 0-0.2-0.3-0.3-0.4-0.7 0-1.3 0.2-2.1 0.2 0.4 1.3-0.3 1.6-1.6 1.2 0.3 0.7 0.5 1.1 0.8 1.8zm6.7 6.7c-0.2-0.7-0.4-1.1-0.5-1.5-0.1-0.4-0.2-0.8-0.3-1.1h-0.5c-0.4 0.8-0.7 1.6-1.2 2.7h2.5zm-50.8-3.3c1.7-0.3 2.8-1.1 3.6-2.5 0-0.2 0-0.7 0-0.9h-0.8c-0.9 1-1.7 2.1-2.7 3.3zm47.6 11.5c0.6 0.4 1.2 0.9 2.3 1.7v-2.4h-2.3zm5.4-23.9c-0.9 0.3-1.8 0.6-2.6 1.1-0.3 0.2-0.3 1-0.5 1.5 0.4 0 0.9 0.3 1.1 0 0.7-0.8 1.4-1.7 2-2.6zm-95.3 31.2v0.7c1.7-0.3 3.4 1 5.1 0.2v-0.6c-1.7 0-3.4-0.2-5.1-0.3zm-20.6-0.6c-1.6-1.4-2.4-1.4-3.5 0zm88.5-8.6q-0.1 0-0.1 0 0 0.1 0 0.1zm-0.1-0.4c-1.4 0.3-2.9 0.7-4.3 1 0 0.2 0 0.5 0.2 0.7 1.4-0.4 2.7-0.8 4.1-1.3 0-0.1 0-0.2 0-0.4zm-2.3-31.5c0-0.2-0.3-0.3-0.4-0.5-0.8 0.8-1.6 1.6-2.3 2.4q0.3 0.3 0.6 0.6c0.7-0.8 1.4-1.7 2.1-2.5zm7.2 43.2c0.7 0 1.3 0.2 1.8 0.3 0 0 0-0.2 0-0.3-0.3-0.2-0.7-0.4-1-0.6 0.3-0.4 0.5-0.6 0.9-1.1h-1.8v1.6zm63.7-48.6c0-0.3 0-0.5 0-0.8-0.8 0-1.5 0-2.3 0.2 0 0.3 0.2 0.9 0.3 0.9 0.7 0 1.4-0.2 2.1-0.3zm-45.8-99.4c1.2-1.9 1.2-2.4-0.6-3v1.6c-0.6-0.6-1-1.1-1.8-1.9-1.8 1.5-3.7 3.1-5.6 4.6-2.2 1.8-4.5 3.5-6.8 5.2-2.8 2.1-5.6 4.1-8.5 6.1-1.4 1-3 1.7-4.3 2.7-1.2 0.9-2.2 2-3.4 2.9-1.3 1-2.8 1.9-4 2.9-1.9 1.6-3.8 3.3-5.7 5-2.9 2.5-4 2.5-7.5 1-3.5-1.5-5.4-4.5-7.5-7.3-0.7-1-1.4-2-2.4-2.7-3.2-2.1-5.7-4.9-8.2-7.7-4.1-4.5-8.1-9-12.3-13.5-1.7-1.8-3.9-3.3-5.5-5.2-2-2.4-4.4-4.4-6.5-6.7-0.7-0.8-1.8-1.6-1-3.1 0-0.2-0.2-0.6-0.4-1.3-0.3 0.7-0.5 1.1-0.6 1.4-6.8-6.4-13.5-12.8-20.3-19.2q-0.9 0-2.4 0c-0.3 3.4-3.3 4.2-5.9 5.6-4.6 2.5-9.2 5.1-13.8 7.6-1 0.5-2.2 0.5-3.3 0.9-0.6 0.2-1.1 0.7-1.5 1.1-0.4 0.4-0.5 1.1-1 1.3-1.8 0.9-3.6 1.7-5.5 2.6-0.4-0.5-0.7-0.9-1.2-1.5-1 4.2-4.9 5.4-7.9 7.2-3.1 1.9-6.3 3.4-9 5.9-1.3 1.2-3.2 1.8-4.7 2.8-2.5 1.8-4.9 3.8-7.5 5.5q-4.7 3-9.6 5.7c-2 1.1-4.2 1.8-6 3.1-1.6 1.1-2.9 2.6-4.3 4-3.4 3.5-7.3 6.4-11.6 8.7-5.1 2.7-9.9 5.9-14.9 8.7-2.6 1.5-5.4 2.8-8.1 4.1-2.3 1.1-4.7 2.2-6.9 3.4-3.5 1.8-7.1 3.5-10.5 5.5-4.9 2.8-9.6 5.9-14.4 8.9-1.9 1.2-3.8 2.5-5.7 3.7 0 0-0.3 0.3-0.5 0.2-3.5-0.4-6.1 1.8-9 3.2-1.6 0.8-2.8 0.8-3.6-1.3-0.6 1-0.9 1.8-1.5 2.5-0.8 0.9-1.5 0.5-1.5-0.5 0-1 0.3-2.3 0.8-3.1 2.5-4.1 6.5-6.5 10.5-8.8 4.5-2.5 9-5 13.5-7.7 5.2-3.1 10.3-6.2 15.4-9.4q9.7-6.2 19.5-12.3c8.7-5.5 17.7-10.7 26.9-15.4 5.7-2.9 11.2-6.2 16.8-9.6 6.4-3.9 12.7-7.9 19-11.9 0.8-0.5 1.4-1.6 2.2-2.1 2.2-1.5 4.5-3 6.8-4.3 5.7-3.2 11.1-6.8 16.3-10.9 1.2-1 2.7-1.5 4-2.4 1.7-1.2 3.4-2.5 5.1-3.7 1.2-0.8 2.4-1.6 3.5-2.4 2-1.4 3.9-2.8 6-4.1 0.5-0.3 1.5-0.3 2.1 0 1.2 0.6 2.1 0.4 3.3-0.2 1.5-0.5 3.3-1.1 4.8-1.1 1.5 0 1.9 1.3 2.6 2.2 2.1 2.7 4 5.6 6.2 8.3 2.9 3.5 5.9 7 9 10.4 1.7 1.9 3.6 3.7 5.3 5.6 3 3.6 5.8 7.3 8.8 10.9 1.1 1.3 2.4 2.4 3.4 3.7 2.1 2.5 4.1 5 6.2 7.5 3.4 3.9 6.6 8.1 10.5 11.6 6 5.5 11 4.5 18 0.7 4.2-2.3 8.2-5 12.2-7.6 3.1-2 6-4.3 9.1-6.2 5.3-3.4 10.7-6.6 16.2-9.8 2.5-1.5 4.5-0.6 5.5 2.2 0.6 1.8 1.2 3.5 1.8 5.3 0.8 2.7 2.3 4.9 4.1 7.1 2.1 2.6 3.6 5.6 5.3 8.5 1.5 2.7 2.5 3.1 5.1 1.4 2.2-1.4 4.3-3 6.3-4.7 2.7-2.2 5.7-3.3 9-3.7 0.5 0 1.4 0.5 1.7 1 1.4 2.1 2.5 4.3 3.9 6.4 0.8 1.2 2 2.2 2.9 3.4 2.4 3.1 4.6 6.5 7.2 9.4 3.2 3.6 7 6.7 10.3 10.2 2.8 2.8 5.2 5.9 7.9 8.8 1.6 1.7 3.6 3.2 5.2 5 5.1 5.7 10.1 11.4 15 17.2 2.7 3.2 5.1 6.7 7.7 10 0.2 0.3 0.4 0.6 0.7 0.9 3.4 3.8 6.6 7.7 10.1 11.3 2.9 2.9 6.1 5.7 9.4 8.2 1.3 1 3.3 1.2 5 1.7 0.2 0 0.5 0 0.7 0.3 2 2.2 3.5 0.4 4.9-0.8 1-0.8 2-1.8 3-2.7 5.1-4.4 10.5-8.7 15.4-13.3 4.3-4 9-7.6 14-10.8 2.1-1.3 4.4-2.5 6.5-3.9 2.1-1.4 4.1-3.1 6.2-4.5 1.9-1.3 4-2.4 6-3.6 4.1-2.5 8.3-5 12.4-7.5 1.2-0.7 2.5-1.4 3.8-2.1 4.2-2.5 8.5-5 12.7-7.4 0.3 0 0.6-0.4 0.6-0.6 0.7-3.1 4-2.9 5.8-4.7 0.4-0.4 2-0.4 2.4 0 0.5 0.6 0.3 1.7 0.5 2.9 0 0 0.4 0 0.8 0.2 1.7 0.7 2.1 1.6 0.8 2.9-1.2 1.2-2.7 2.2-4.2 3.2-2.5 1.7-4.8 3.6-7.5 4.7-2.8 1.1-5 3.2-7.7 4.4-2.1 1-3.8 2.8-5.8 4-1.8 1.1-3.8 1.9-5.7 2.9-2.1 1.2-4.1 2.4-6.1 3.7-4.3 2.8-8.5 5.6-12.7 8.5-4.3 2.9-8.2 6.2-11.7 10.1-1.8 2.1-4.4 3.5-6.4 5.4-2.7 2.5-5 5.4-7.8 7.8-4.2 3.6-7.5 8.2-12.5 10.8-1.2 0.6-2.4 1.3-3.7 1.9-0.3 0.2-0.8 0.3-1 0.2-1.8-1-3.7-2-5.4-3.1-0.9-0.6-1.6-1.5-2.4-2.3-2.7-2.3-5.6-4.5-8.2-7-3.4-3.3-6.7-6.7-9.8-10.3-3.5-4-6.7-8.3-10.2-12.3-3.3-3.7-6.8-7.1-10.1-10.8-1.7-1.8-3.2-3.9-4.7-5.8-2.1-2.6-4.1-5.2-6.2-7.7-2.5-2.9-5.1-5.7-7.7-8.6-2.2-2.4-4.3-5-6.6-7.3-3.6-3.7-7.4-7.2-11.1-10.8-2.5-2.4-4.9-4.8-7.5-6.9-1.1-0.9-2.3-1.3-2.8-2.9-0.4-1.2-1.7-0.3-2 0.3-1.6 3.8-5.4 5.2-8.3 7.5-1.3 1-2.4 2.1-3.9 2.6-1.8 0.7-3.3 0.3-4.6-0.9-0.5-0.4-0.9-1-1.2-1.6-2.1-3.5-4.2-7.1-6.3-10.6-1.5-2.6-3-5.2-4.6-7.7-0.9-1.4-2.1-2.5-3.3-3.9h-0.2zm-45 23.9c0 0.2 0.2 0.3 0.3 0.5 4.6-2.5 8.8-5.4 12.7-8.9 0-0.2-0.2-0.3-0.3-0.5-4.2 3-8.4 5.9-12.7 8.9zm-185.9 6.9c3.3-0.5 13.4-7 14.3-9-4.6 2.9-9.3 5.8-14.3 9zm15.6-9.3c2.1-0.4 3.9-0.8 4.9-2.9-1.4 0-4.3 1.6-4.9 2.9zm8.1-6.1q0 0 0.1 0 0 0 0 0zm-1.4 2.2c0 0 0.2 0.2 0.3 0.4 1-0.7 2.1-1.4 3.4-2.3-1 0-1.6-0.2-2.2-0.3-0.6 0.9-1 1.6-1.5 2.2zm109.6-48.7v0.4c0.8-0.2 1.5-0.3 2.2-0.5-0.3-0.5-0.5-1.1-0.7-1.4-0.6 0.6-1 1.1-1.4 1.5zm-22.3 189.5v1.4c-1.1-0.3-2.2-0.8-3.4-0.9-2-0.2-4 0-5.9-0.3-3.6-0.3-7.2-0.8-10.8-1-2.6 0-5.2 0.2-7.7 0-6.1-0.3-12.1-0.6-18.2-1-0.8 0-1.5-0.4-2.3-0.6-0.6-0.2-1.1-0.5-1.7-0.6-4.3-0.3-8.6-0.5-12.9-0.8-0.9 0-1.8-0.6-2.7-0.7-0.7 0-1.5 0.3-2.2 0.2-0.5 0-1-0.4-1.7-0.8-1.1 2.3-3.4 0.7-5.3 0.8-5.5 0.4-11 0.4-16.5 0.6-3.3 0-6.6 0.8-9.8 0.5-2.9-0.3-5.5 1.1-8.4 1.1-7.2 0-14.4 0.4-21.6 0.7-2 0-4 0.4-6.1 0.5-1.7 0-3.3-0.5-4.9 0.8-0.5 0.4-1.6 0-2.5 0-4.7 0.2-9.3 0.5-14 0.6-2.2 0-4.5 0-6.7 0-0.5 0-1 0-1.4-0.2-0.3-0.4-0.7-0.9-1.1-1.4 0.4-0.5 0.8-1.3 1.3-1.4 2.3-0.4 4.7-0.6 7-0.9 0.3 0 0.6 0 1-0.5-0.7-0.4-1.3-0.8-2.6-1.5 1.5-0.6 2.6-1.2 3.7-1.3 5.4-0.6 10.8-1 16.2-1.7 1.9-0.3 4.1-0.2 5.7-2 0.3-0.3 1-0.5 1.3-0.3 2.1 1.4 4.4 0.4 6.5 0.4 4.5 0 9 0 13.5-0.3 6.4-0.2 12.9-0.4 19.3-0.7h0.7c1.1-0.2 3-0.3 3-0.6 0.3-1.7 0-3.6 0-5.4 0-0.3-1.1-0.7-1.6-0.6-1.1 0-1.7 0-2.3-1.2-1.4-2.4-4.9-3.1-7.4-2.1-0.9 0.4-2.1 0-3.2 0.2-0.8 0.2-1.7 0.5-2.4 1.1-1.8 1.4-3.5 1.4-4.8-0.4-0.3-0.4-0.6-1-0.5-1.4 0.6-2.4 1-4.9 1.9-7.2 1.3-3.5 3-6.7 4.4-10.2 0.8-2.1 0.8-4.4-0.8-6.2-1-1.1-1.2-2.2-0.7-3.5 1.6-4.1 3.4-8.2 4.6-12.4 1-3.4 2.4-6.5 4.6-9.2 0.4-0.5 0.8-0.9 1.3-1.4 2.5-2.7 5.3-5.1 7.5-8 1.5-1.9 2.3-4.5 3.5-6.8 0.6-1.2 1.3-2.5 2.3-3.3 1.3-1.1 2.5-2.1 3.1-3.8 0.5-1.2 1.4-2.2 2.3-3.2 0.8-1.1 1.7-2.3 2.7-3.1 0.8-0.6 1.9-0.9 2.9-0.9 1 0 1.8 1 1.7 2.3-0.2 1.9-0.6 3.8-0.8 5.7 0 1.1 0 2.3 0 3.4 0.2 0 0.4-0.2 0.5-0.4 0.9 0.4 2.1 0.6 2.5 1.3 0.9 1.6 2.4 3.3 1.1 5.5-0.9 1.4-0.9 2.5 0.4 3.7 0.7 0.6 1.1 1.7 1.6 2.5 0.9 1.7 1.7 3.4 2.7 5 1 1.5 0.9 2.9 0 4.1-0.9 1.1-0.9 2.1-0.5 3.2 0.2 0.8 0.5 1.6 0.8 2.4 0.2 0.6 0.5 1.7 0.8 1.7 0.7 0 1.5-0.3 2.1-0.8 2.2-2.1 4-4.6 6.4-6.3 3-2 3.8-4.4 3.2-7.9 0-0.7 0.8-2.1 1.5-2.4 1-0.5 2.4-0.5 3 1.1 0.2 0.6 0.6 1.2 1.2 2.3 0.3-1 0.4-1.3 0.4-1.7 0-2.3 1.3-3.5 3.4-2.9 0.7 0.2 1.5 0 2.3 0 0.8 0.2 2 0.3 2.3 0.9 0.3 0.5-0.2 1.8-0.7 2.4-0.9 1.2-1 2.1 0.4 2.7 1.4 0.6 1.7 1.5 1.6 3-0.4 5.8 1.6 11 4 15.9 1.1 2.4 2.9 4.3 4.4 6.5 2.3 3.4 4.5 6.8 4.9 11.1 0 0.7-0.4 1.5-0.5 2.2-0.8-0.3-1.8-0.3-2.4-0.9-2-2.2-3.7-4.6-5.6-6.7-0.4-0.4-1.2-0.4-1.9-0.3-0.2 0-0.5 1-0.3 1.3 0.5 1 1 2 1.8 2.7 2.7 2.5 3.7 6 5.3 9.2 0.6 1.2 1.3 2.2 1.8 3.4 0.4 0.8 0.7 1.8 0.6 2.6 0 0.4-1.1 0.7-1.7 1.1-0.8 0.6-1.5 1.3-2.4 2.1-0.4-0.7-0.6-1.1-1-1.9-0.3 0.7-0.5 1.2-0.7 1.9-1.2-1.3-2.3-2-4.1-1.7-0.8 0.2-1.9-1.1-2.9-1.5-1-0.4-1.2 0-1.8 0 0 0.6-0.2 1.5 0.2 1.9 1 1.2 2.2 2.2 3.2 3.4 0.5 0.6 1 1.7 0.8 2.4-0.4 1.1-1.3 2-2.6 1.4-1-0.4-2-1-3-1.4-1.8-0.7-3.2 0.3-3.4 2.4 0 1-0.2 2-0.3 3.4 1.8 0.2 3.5 0.3 5.3 0.5 6.4 0.7 12.8 1.3 19.2 2.1 4.9 0.6 9.7 1.5 14.6 2.1 2.9 0.4 5.9 0.5 8.8 1 5.1 0.9 10.1 2.2 15.2 3.2 4.5 0.9 9.1 1.7 13.6 2.7 3.5 0.7 6.9 1.8 10.4 2.3 7.2 1 14.2 2.9 21.1 5.1 4.2 1.3 8.4 2.7 12.5 4.3 2.8 1.1 5.3 3.1 8.2 3.9 5.3 1.4 9.1 5.3 13.4 8.3 1.9 1.3 4 2.4 5.9 3.6 2.5 1.6 4.9 3.2 7.3 4.9 0.4 0.2 0.5 0.9 0.7 1.3-0.4 0.2-0.9 0.6-1.2 0.6-1.1-0.3-2.3-0.7-3.4-1.2-1.4-0.6-2.6-1.6-4.2-0.3-0.3 0.2-1.1-0.2-1.6-0.5-3.7-2.3-7.3-4.7-11-6.9-1.6-0.9-3.4-1.1-5.1-1.7-3.5-1.2-7.1-2.5-10.6-3.7-4.2-1.4-8.5-2.8-12.7-4.1-4.2-1.3-8.4-2.7-12.6-3.9q-10.7-3-21.3-5.7c-2.9-0.7-5.7-1.5-8.6-1.8-4.2-0.5-8.3-1.5-12.2-3-1.4-0.5-3-0.7-4.5-0.8-1.7 0-2.6-1.1-3.2-2.9 0 0-0.3 0.2-0.4 0.4v-0.2zm-50.2-18.6c-2.2-0.9-3.8-0.3-5.3 1.3-1.1 1.3-2.2 2.6-3.4 3.7-0.4 0.4-1.5 0.9-1.7 0.7-1-1-3.2 0-3.3-2.5 0-0.2-0.5-0.3-0.7-0.5-2.2-1.1-2.4-1.8-1.2-4 0.2-0.4 0.3-0.8 0.7-1.6-1.3 0.5-2.2 0.9-3.3 1.3 0.3 0.7 0.5 1.2 0.7 1.8 0.5 1.4 0.6 3-0.6 3.9-1.3 0.8-2.7 0.4-3.7-0.9-0.7-0.9-1.3-1.9-1.7-2.9-0.7-2-2.2-2.5-3.9-2.5-1.7 0-2.5 0-3.7 0-0.5 0-1.3 0.9-1.2 1.1 0.9 2.3 0 4.1-1 6-0.2 0.5-0.3 1.1-0.6 2 11.5 0.4 22.8 0.7 34.3 1.1 0-2.8-0.3-5.4-0.4-8zm0.4-24.6c-0.3-0.2-0.5-0.5-0.8-0.7-0.3 0.6-0.6 1.3-1 1.8-0.7 0.9-1.3 2-2.2 2.7-1.2 0.9-1.9 1.8-1.8 3.4 0 0.5-0.4 1-0.7 1.4-1.6 1.8-3.3 3.5-4.9 5.3-0.3 0.4-0.4 1-0.7 1.4 1.2-0.6 1.9-1.7 3-2.2 2.7-1.5 4-4 4.9-6.8 0.3-0.9 1.1-1.9 1.9-2.3 1.7-0.8 2.2-2.2 2.4-3.9zm-81.4 37.3v0.9q8.1-0.4 16.2-0.9c-5.5-1.2-10.9-0.9-16.3 0zm54.3-33.3q0 0-0.1-0.1 0 0.1 0 0.1zm0.4-2c-0.9-1.6-2.1-3-3.3-4.6-0.6 3 1.1 4.6 2.8 6.5 0.2-0.7 0.7-1.5 0.5-1.9zm6.9 13.7c-1.1-1.9-2.1-3.4-3.1-5-0.5 4 0.5 5.6 3.1 5zm136.6 43c-0.8-2.7-4.2-3.9-6.4-2 2.2 0.7 4.3 1.4 6.4 2zm-209.6-20.5c3.2 2 6.1 0 9.1 0v-0.6c-3 0.2-6.1 0.4-9.1 0.6zm36.4-22.9c1.2-1.7 2.5-3.5 4-5.5-3.1 0.6-4.5 2.9-4 5.5zm40.1-17c0 0-0.3-0.2-0.4-0.3-1 0.4-2 0.8-3.2 1.4 0.4 1 0.8 1.9 1.4 3.3 1-1.9 1.6-3.1 2.3-4.4zm-5-5.1c1-1.8 0-5.7-2-6.7 0.7 2.4 1.3 4.4 2 6.7zm-12.4 14c0 2.1-0.3 3.8-0.4 5.4 2-0.4 2.1-1.6 0.4-5.4zm37-18.9v-4.6c-1.6 1.6-1.7 2.3 0 4.6zm-43.2 21c0 0-0.3 0-0.4 0-0.3 2.6-2.4 4.7-1.6 7.7q1-3.7 2.1-7.5zm-65.9 29.9v0.3h5.1v-0.7c-1.7 0-3.4 0.3-5.1 0.4zm105.5-17.9c0 0.2-0.2 0.4-0.3 0.5 0.9 0.6 1.8 1.2 2.8 1.8 0 0 0.5-0.2 0.5-0.4 0-0.3 0-0.7-0.2-0.8q-1.4-0.6-2.7-1.2zm-38.8-25.5c1.9-1.1 2-1.5 0.9-2.8-0.3 1-0.6 1.9-0.9 2.8zm409.5 23.9h-0.5q0.1-0.1 0.2-0.2zm-1.5 1.3q-3.9 3.5-7.8 6.9c-1.1 1-2.1 2.4-3.4 2.9-1.8 0.6-3.8 0.5-5.7 0.6-0.6 0-1.2-0.4-1.9-0.6-0.3 2.9-0.6 3.2-3.3 2.7-1.2-0.2-1.6 0-1.7 1.4 0 1.6-0.4 3.2-0.8 4.8 0 0.6-0.7 1.5-1 1.4-0.6 0-1.3-0.6-1.7-1.1-0.3-0.4-0.2-1.1-0.2-1.7 0-1.5 0.2-3-1.2-4-0.4-0.3-0.3-1.3-0.5-2 0-0.4-0.3-1-0.6-1.1-0.4 0-0.8 0.3-1.3 0.5 0 0 0 0 0 0.2-0.9 1.2-1.9 2.4-3.5 1.2-1.1-0.8-1-2.7 0-4.5 1.5-2.8 3.1-5.5 4.6-8.3 0.2-0.3 0-0.7 0.2-1-1.2 0.2-2.3 0.7-3.3 0.5-1.5-0.3-1.9-1.4-1-2.9 1.6-2.7 3.1-5.4 4.6-8.1 0.3-0.6 0.2-1.4 0.3-2.2-0.7 0.3-1.4 0.5-2 1-1.3 1-2.4 2.3-3.8 3.2-0.6 0.4-1.9 0.3-2.3 0-0.5-0.6-0.8-2.1-0.4-2.7 2.1-3.2 4.3-6.4 6.7-9.4 2.5-3.2 5.1-6.4 7.9-9.2 1.9-1.9 2.8-4 2.7-6.8 0-0.4 0.3-0.8 0.5-1.2 0.5-1.4 1.2-2.6 3.1-2 0-0.9 0-1.6-0.2-2.5-0.5 0.2-0.8 0.3-1.3 0.6 0.3-0.8 0.4-1.7 0.8-2 0.6-0.4 1.4-0.4 2.2-0.3 0.2 0 0.5 0.9 0.4 1.3-0.5 2.2-1.1 4.3-1.6 6.5 0 0.4-0.2 0.8 0 1.1q3.5 11.3 6.9 22.5c0 0 0.2 0.2 0.4 0.4 0.6-0.6 1.2-1 1.6-1.7 2.9-4.5 5.6-9.2 8.8-13.5 3.8-5.3 6.6-11.5 11.4-16q1-1 2.4-1.8c0.4-0.2 1.1-0.3 1.3 0 0.3 0.3 0.5 1.1 0.4 1.5-0.5 2-0.4 4.3-2.2 5.8-0.4 0.3-0.5 1.2-0.7 1.9 3.2 0.7 3.2 0.8 3.9 4.2 0.5 2.2 1.3 4.4 1.8 6.6 0.6 2.4 1.1 4.9 1.7 7.4 0 0.2 0 0.6 0 0.8-1.8 2.5 0.6 4.1 1 6.1 0.6 3 2 6 1.2 9.3-0.2 0.8 0.4 1.8 0.6 2.8 0.5 2.6 1.1 5.3 1.3 7.9 0 1.7-2.3 2.6-3.6 1.5-1-0.9-1.9-1.8-3.1-2.8q0 0.8 0 1.2c-0.2 0.8-0.4 2.1-0.8 2.2-0.8 0.2-1.8-0.2-2.5-0.6-0.7-0.4-1.3-1.1-2.2-1.7 0.8 3.4-0.8 4.8-3.2 5.4-2.7 0.7-2.7-2.8-4.6-3.7-0.2 0.4-0.3 0.8-0.5 1.2-0.9 1.9-1.8 3.8-2.9 5.6-0.2 0.3-1.2 0.5-1.6 0.2-0.5-0.3-0.9-1-1-1.6 0-0.6 0.2-1.2 0.5-1.8 0.9-2.3 1.7-4.6 2.7-6.8 1.1-2.4 0.8-4.8 0.4-7.4-0.4 0.2-0.8 0.3-1.2 0.5 0.2-0.9 0.4-1.8 0.7-2.6 0.2-0.6 0.7-1.1 1.1-1.6-0.2 0-0.3-0.3-0.5-0.4-1.1 1.3-2.3 2.7-3.4 4 0 0.2 0.2 0.3 0.3 0.5h1.1c-0.3 0.5-0.6 1-1 1.3zm-12.4 3.2h0.5c1.3-3.4 4.8-5.2 5.8-8.9-0.8 0-1.4 0.4-1.8 0.9-1.6 1.9-3.4 1.8-4.5-0.4-1.4-3-2.5-6.1-3.7-9.2-0.2-0.5-0.7-0.9-1.1-1.4-0.9 2.1-0.2 6.7 1 8.1 0.6 0.7 1.2 1.6 1.4 2.5 0.5 1.8 0.7 3.8 1.2 5.6 0.2 0.9 0.8 1.8 1.2 2.6zm31.9-7l0.6-0.4c-2.8-4.9-5.6-9.8-8.5-14.8-1.1 2.8-1.1 2.7 0.5 4.8 0.7 0.9 1.3 1.8 1.8 2.8 1.2 2.7 2.2 5.6 3.5 8.2 1 2 2.3 3.8 3.5 5.7 0.3-0.2 0.6-0.3 0.9-0.5-0.2-0.8-0.3-1.6-0.7-2.2-0.9-1.4-1.9-2.7-2.8-4 0 0 0.3-0.2 0.4-0.3 0.2 0.2 0.5 0.5 0.7 0.7zm-14.2-15.2c1.8-1.9 3.5-3.8 5.3-5.7-0.8-0.7-1.7-0.6-2.5 0.4-1.2 1.6-3.4 2.7-2.8 5.3zm7-17.1c-1 1.4-1.8 2.4-2.5 3.4 1 0.7 1.7 1.2 2.4 1.7q0.3 0 0.6 0c0-1.5-0.3-3-0.4-5zm-34.7 29.6c-0.2 0.8-0.5 1.3-0.4 1.7 0 0.7 0.3 1.7 0.8 1.9 0.5 0.2 1.3-0.3 1.9-0.5-0.3-0.6-0.6-1.2-1-1.8-0.3-0.4-0.7-0.8-1.3-1.3zm34.4-22.4q0 0 0.1 0.1zm-0.4 0.1c0.4 2.4 0.8 4.8 1.2 7.3 0.6-2.6 0.4-5-0.7-7.3zm-29 3.7c-0.2-0.2-0.3-0.4-0.5-0.6-1.4 1.3-2.8 2.6-4.4 4 3 0.6 3.5-1.9 4.8-3.4zm19.5 6.7c-2.1 1.1-2.2 2.1-0.4 4.4 0-1.6 0.2-2.9 0.4-4.4zm-12 6.3c0.6 1.5 0.9 2.4 1.3 3.3 0.2 0 0.3 0 0.5 0 0.3-0.7 0.7-1.3 1-2.1l-2.8-1.4zm-15.7 19.2c0.2-1.3 0.4-2.5 0.7-4.2-2 1.4-2.2 2.4-0.7 4.2zm2.9-20.6c-0.7 1.6-1.3 2.9-1.8 4.1 1.9 0.5 2.2 0 1.8-4.1zm36.6 38.5q0.1 0 0.3 0-0.1-0.2-0.1-0.4zm0.6 0.8c0.8 1.9 0.3 2.9-1.7 3.2-3.6 0.5-7.3 1-10.9 1.6-7.9 1.4-15.7 3-23.6 4.4-2.9 0.5-6 0.7-8.9 1.3-3.3 0.8-6.6 2-9.9 2.8-3.8 1-7.7 1.8-11.6 2.8-1.8 0.4-3.5 1.3-5.2 1.4-2.2 0-4.1 1.1-6.2 1.6-2.2 0.5-4.4 1-6.5 1.7-5.5 1.9-10.9 4-16.4 6.1-2.5 1-5.1 2-7.6 2.9-1.4 0.5-3 0.3-4.4 0.9-6.4 2.4-12.8 4.8-19.2 7.4-4.5 1.8-8.9 3.8-13.3 5.9-2.7 1.3-5.3 3.1-8 4.5-2.9 1.5-6 2.6-8.9 4.2-2.7 1.5-5.2 3.4-7.8 5-2.2 1.3-4.6 2.2-6.9 3.2-0.3 0-1-0.5-1.4-0.9-0.4-0.5-0.5-1.1-0.7-1.7-1.7 1.6-3.3 3.1-5 4.4-0.3 0.3-1.4 0.2-1.5 0-0.3-0.7-0.6-1.7-0.3-2.2 0.7-1.3 1.6-2.6 2.7-3.6 2.8-2.3 6-4.2 8.6-6.7 3.6-3.3 8-4.6 12-7 5.4-3.2 10.6-6.8 16.2-9.5 5.3-2.6 10.5-5.4 16.3-6.7 4.2-0.9 8.3-2.2 12.4-3.5 3.2-1 6.3-2.6 9.5-3.5 6.6-1.8 12.8-4.7 19.2-7.2 4-1.6 8.2-2.5 12.2-3.8 2-0.7 3.9-1.7 5.9-2.3 5.4-1.5 10.8-3.1 16.2-4.3q7.8-1.8 15.6-3c5.2-0.8 10.4-1.4 15.5-2 4.5-0.5 9.1-0.9 13.6-1.4 3.8-0.4 7.6-1 11.4-1.5 1.3-0.2 2.6-0.2 4 0 1.2 0 2.1 0.9 1.9 2.3-0.2 1.4-1 1.9-2.3 1.8-0.8 0-1.5-0.4-2.4 0.6-0.5 0.5-1.7 0.1-2.9 0 0.1 0.4 0.2 0.6 0.3 0.8zm-91.8 17.9c15.6-4.1 31.1-8.5 46.3-14-16.1 2.2-31.1 8.3-46.3 14zm-25 8.8c-6.9 1.8-14 3.3-20.5 6.7 7.3-0.7 13.6-4.7 20.5-6.7zm101.8-28.1c1.3 2.2 2.1 2.4 4.6 1.2-1.5-0.4-2.9-0.7-4.6-1.2zm-58.6-9.9c-2.1 0.9-3-0.5-3.4-2.9-0.5 0.4-0.8 1-1.2 1-0.9 0-1.9 0-2.7-0.4 0 0 0-1.3 0-1.9 0.3-0.8 0.8-1.6 1.3-2.3 1.2-1.7 2-3.5 1.9-5.7 0-0.9 0.7-1.8 1.1-2.7 4.8-10.4 9.6-20.8 14.5-31.1 0.5-1.1 2.1-1.9 3.3-2.2 1.2-0.4 1.3 1 1.4 2 0.2 2.4 0.2 4.8 0.6 7.1 0.5 3.2 1.4 6.4 1.9 9.6 0.2 1.2-0.4 2.5-0.6 3.8 0 0.7-0.4 1.6 0 2.1 1.4 2.9 3.1 5.5 4.4 8.5 0.7 1.6 1 3.5 1.2 5.4 0 0.8-0.7 2.2-1.2 2.3-0.8 0-2.1-0.4-2.6-1.1-1.3-1.9-2.3-4-3.5-6.1-0.2-0.3-0.4-0.6-0.7-1.2-0.7 3.2 0.4 5.5 1.9 7.7 0.3 0.5 0.7 0.9 0.8 1.5 0.3 1.4 1.1 2.1 2.4 2.2 0.5 0 1 0.3 1.5 0.5-1.1 1.7-2.1 3.2-3.1 4.6-0.9 1.2-2.7 0.8-3.6-0.8-0.5-1-1-2-1.6-3 0-0.2-0.4-0.4-0.9-0.8-0.4 2.3-0.9 4.4-1.1 6.5-0.2 1.3-0.7 2.1-1.8 1.8-0.8-0.2-1.8-0.8-2.1-1.5-0.9-2.1-1.2-2.2-2.6-0.5-0.7 0.8-3.9 1.6-4.4 0.8-0.5-0.8-0.5-1.9-0.8-3.1h-0.3zm-94.8-28.1h9.4v9.4h-9.4zm13.4 0h9.4v9.4h-9.4zm0 13.4h9.4v9.4h-9.4zm-13.4 0h9.4v9.4h-9.4z"/>
</svg>