<svg xmlns="http://www.w3.org/2000/svg" id="Calque_1" data-name="Calque 1" viewBox="0 0 512 67.3"><defs><style>      .cls-1 {        fill: #fff;        stroke-width: 0px;      }    </style></defs><path class="cls-1" d="M253,14.7c4.2-1.3,8.6-1.2,12.9,0,.8.2,1.1-1,.4-1.3-6.9-2.8-19.7-3.1-22.4,5.8-2.6,8.6,8.9,11.1,15,10.8,3.5-.2,9.1-.9,11.4-4,1.6-2.2.9-5.2-1-6.8-3.4-3-9.9-3.1-14.1-2.2-2.4.5-5.8,2.8-4.2,5.8,1.3,2.3,5.8,2.9,7.9,1.9,1.8-.8.2-3.5-1.6-2.7-.6.3-2.5,0-3.1-.4-1.1-.8.4-1.4,1.3-1.6,1.6-.5,3.4-.5,5.1-.4,1.9,0,4,.3,5.8,1.1.8.4,1.6.9,1.9,1.7.7,2-1.6,3-3.1,3.6-3.5,1.3-7.3,1.6-10.9,1-2.9-.5-7.5-1.7-7.8-5.3-.3-4,3.5-6.1,6.7-7.1Z"></path><path class="cls-1" d="M278.6,22s0,0,0,0c0,0-.2,0-.3,0-2.4,0-3.3,2.1-4.4,3.9-2.2,3.6-5.5,5.5-9.6,6.4-1.8.4-3.7.6-5.5.8-1.2.1-2.5.1-3.3,1.2-1.4,2-.8,4.7,0,6.8,1,2.5,2.1,4.5,4.3,6,2.5,1.8,5.7,2.4,8.8,2.2,6.4-.6,11.8-4.2,14.3-10.2,2.2-5.4,3.7-15.7-4.3-17ZM278.4,41.9c-4.1,5.1-13.3,7-18.3,2.2-1.5-1.4-2.9-4.4-2.9-6.4-.1-2.4,1.7-2.1,3.5-2.4,1.6-.2,3.1-.4,4.7-.8,3-.7,6-2,8.2-4.2,1-1,1.8-2.1,2.5-3.3.5-.8,1.1-2.5,2.2-2.6,7.4,1.5,3.3,13.7.2,17.5Z"></path><path class="cls-1" d="M253.3,42c-.3-1.3,0-2.8.2-4.1,0-.1,0-.3,0-.5,0-2.5-1.7-5.2-4.2-5.8-1.9-.5-3.3-.6-4.8-1.9-1.4-1.2-2.4-2.7-3.4-4.2-2.7-4-8.9-.9-11.5,1.8-9.7,9.9,7.3,20.6,15.9,22,2.6.4,7.3,1.4,9.1-1.2.7-1,.7-2.3.2-3.4-.4-.9-1.2-1.5-1.4-2.6ZM250.6,47.2c-.9.1-2,0-2.9-.1-1.9-.2-3.7-.6-5.5-1.1-4.6-1.5-10.6-5.2-12.3-9.9-1.1-3.1-.3-5.4,2-7.5,1.2-1.1,5-3.3,6.7-2.4.8.5,1.6,2.4,2.3,3.2.9,1.1,1.8,2.1,2.9,2.9,1.1.8,2.3,1.3,3.7,1.6.7.1,1.5,0,2.2.5.5.4,1.5,2.2,1.5,3-.6,2.8-.5,5.1,1,7.7,1,1.8,0,1.9-1.5,2.1Z"></path><path class="cls-1" d="M229.5,24.7c2.5.7,4-3.2,6.6-2.9,2.3.3,4.5.1,5.3-2.4.6-1.9,1.1-3.4,2.6-4.9,1.6-1.5,3.6-2.7,5.7-3.4,3-1.1,7.6-.6,9.4-3.7.7-1.1,1.3-3,1.5-4.4.1-1.2-.6-1.9-1.6-2.3,0,0-.2,0-.3-.1-.1,0-.2,0-.3,0-6-1.3-13.8-.1-19.3,2.6-6,3.1-10.5,9.6-11.2,16.2-.2,1.5-.4,4.7,1.6,5.3ZM231,16.2c1.1-3.7,3.8-7.2,6.9-9.5,2.7-2,6-2.9,9.2-3.5,3.5-.7,7.3-1.1,10.8-.2.2,0-.5,1.6-.5,1.8-.4,1.2-.6,2-1.9,2.5-1.5.6-3.3.5-4.8.9-3.1.8-6.1,2.4-8.4,4.6-1.1,1.1-2.1,2.4-2.7,3.9-.6,1.6-.4,3-2.5,2.8-.9,0-1.8-.4-2.7-.2-1.3.3-2.3,1.4-3.3,2.1-.2.2-.4.4-.7.5,0-.5,0-1,0-1.5,0-1.4.3-2.9.8-4.2Z"></path><path class="cls-1" d="M287.3,14.5s0,0,0-.1c0,0,0-.1,0-.2-2.5-5.2-6.5-9.2-11.7-11.7-2.5-1.2-5.7-2.2-8.5-1.9-2.6.2-4.4,2.3-5.7,4.4-1.1,1.8-1.1,4,1,5,3.3,1.6,7.2,1,9.7,4.3,1.2,1.6,1.8,4,3.5,5.3.7.5,1.5.7,2.3.8,1.9.2,3.3.7,4.8,2,1.4,1.3,2.6,1.9,4,.2,1.9-2.2,1.9-5.5.8-8.1ZM285.2,19.9c0,0-.3.8-.6,1.2,0-.2-.5-.5-.6-.6-1.5-1.9-3.9-2.1-6.1-2.6-2-.4-2.5-2.8-3.5-4.3-1.2-1.9-2.7-3.3-4.8-4.1-1.5-.6-3-.9-4.5-1.3-.6-.1-2.1-.3-2.2-1.2,0-.6,1.1-1.7,1.5-2.2,2.3-2.7,5.9-1.7,8.9-.6,5.3,2,9.3,6.1,11.7,11.1.6,1.5.8,3,.2,4.5Z"></path><path class="cls-1" d="M221.6,28.7c-6.1,7-14.7,12.2-24.1,13.1-4.6.5-9.7-.3-13.8-2.7,5.1-5.7,7.4-16,2.1-22.2-2.3-2.8-6.6-3.5-9.5-1.1-2.9,2.5-3.8,6.9-3.9,10.5-.2,5.4,2,10.1,5.6,13.5-6.8,5.3-16.8,7.9-24.8,5.5-1.4-.4-2,1.7-.6,2.2,9.1,3.4,20.3.4,28-5.7,2.6,1.8,5.6,3,8.7,3.6,13,2.4,26.6-4.4,35.2-14,1.8-2-1.2-5-2.9-2.9ZM177.1,30.8c-.8-2.8-.6-5.8.2-8.6.7-2.2,2.6-5.3,5.2-3.3,2.2,1.6,2.7,5.4,2.7,7.9,0,3.7-1.4,7.4-4,10.1,0,0-.1.1-.2.2-1.8-1.6-3.2-3.8-4-6.4Z"></path><path class="cls-1" d="M117.4,37.4c-.6-.3-1.3.5-.8,1,2.9,3.1,3.1,7.5.3,10.8-2.2,2.5-6.9,2.1-9.6.4-2.9-1.8-3.9-6.5-3.8-9.7.2-3.9,2.3-7.3,5.2-9.9,6.4-5.7,15.3-6.1,23.2-3.7,8.9,2.7,15.7,8.7,23,14.1,2,1.5,4.5-1.8,2.6-3.4-6.7-5.5-15.4-11.4-24.4-14.2.3-.3.4-.7.3-1.2-.7-3.6-1.5-7.2-3.2-10.5-1.6-3-4.1-5.7-7.3-6.9-2.9-1.1-6-.2-5.5,3.4.7,6.1,4.7,11.2,10,13.9-6.2-.9-12.4,0-18.1,3.7-6.2,4-10.2,11-8.9,18.5.6,3.2,2.1,6.8,4.9,8.6,2.6,1.7,6.7,2.4,9.7,1.6,7.2-1.9,9.2-13,2.4-16.6ZM121,11.4c-.5-1.1-.8-2.2-1.1-3.4-.5-2.4,2-1.7,3.2-1,2.2,1.2,3.8,3.2,5,5.3,1,2.1,1.7,4.3,2.2,6.5-2.6-3.8-5.4-7.6-8.7-10.6-.2-.2-.4,0-.3.2,2.2,3.9,5.2,7.3,7.7,11.1-3.6-1.6-6.4-4.4-8-8.2Z"></path><path class="cls-1" d="M94.1,35.3c-9.8,9.9-25.8,12.6-38.6,7-7.1-3.1-11.8-9.3-18.2-13.4-3.2-2.1-6.8-3.4-10.6-3.9-1.9-.2-3.9-.3-5.8,0-1.8.3-3.3.9-5,1.6-.7-3.3-1.5-6.5-3-9.5-1.6-3-4.1-5.7-7.3-6.9-2.9-1.1-6-.2-5.5,3.4.8,6.4,5.2,11.8,10.9,14.3C5.2,30.4.8,35.8,0,42.2c-.4,3.4,2.3,4.5,5.2,3.5,3.4-1.2,6-3.9,7.7-7,1.7-3.3,2.5-6.9,3.2-10.5,0,0,0,0,0,0,6.3-1.6,13.9,0,19.1,3.6,5.2,3.5,9.3,8.6,14.7,11.9,4.4,2.7,9.3,4.3,14.4,5-6.4,2.2-11.5,7.9-12.4,14.9-.4,3.4,2.3,4.5,5.2,3.5,3.4-1.2,6-3.9,7.7-7,1.7-3.3,2.5-6.9,3.2-10.5,0-.2,0-.4,0-.6,4.5.2,9-.4,13.3-1.8,5.8-1.8,11.1-5,15.4-9.3,1.6-1.6-.9-4.2-2.5-2.5ZM3.7,17.4c-.5-1.1-.8-2.2-1.1-3.4-.5-2.4,2-1.7,3.2-1,2.2,1.2,3.8,3.2,5,5.3,1,2.1,1.7,4.3,2.2,6.5-2.6-3.8-5.4-7.6-8.7-10.6-.2-.2-.4,0-.3.2,2.2,3.9,5.2,7.3,7.7,11.1-3.6-1.6-6.4-4.4-8-8.2ZM5.8,42.8c-1.2.6-3.1,1.3-3.3-.5-.1-1.1.8-3,1.2-3.9,1.6-3.7,4.5-6.5,8-8.2-2.5,3.8-5.5,7.2-7.7,11.1-.1.2.1.4.3.2,3.3-3,6.2-6.8,8.7-10.6-.5,2.2-1.2,4.4-2.2,6.5-1.2,2.2-2.8,4.1-5,5.3ZM57.7,64.1c-1.2.7-3.1,1.3-3.3-.5-.1-1.1.8-3,1.2-3.9,1.6-3.7,4.5-6.5,8-8.2-2.5,3.8-5.5,7.2-7.7,11.1-.1.2.1.4.3.2,3.3-3,6.2-6.8,8.7-10.6-.5,2.2-1.2,4.4-2.2,6.5-1.2,2.2-2.8,4.1-5,5.3Z"></path><path class="cls-1" d="M210.9,27.4c1,.2,1.7-.6,1.5-1.5-.7-3.6-1.5-7.2-3.2-10.5-1.6-3-4.1-5.7-7.3-6.9-2.9-1.1-6-.2-5.5,3.4.9,7.7,7.1,13.9,14.5,15.5ZM202.1,11.4c2.2,1.2,3.8,3.2,5,5.3,1,2.1,1.7,4.3,2.2,6.5-2.6-3.8-5.4-7.6-8.7-10.6-.2-.2-.4,0-.3.2,2.2,3.9,5.2,7.3,7.7,11.1-3.6-1.6-6.4-4.4-8-8.2-.5-1.1-.8-2.2-1.1-3.4-.5-2.4,2-1.7,3.2-1Z"></path><path class="cls-1" d="M210.9,46.5c-7.5,1.6-13.6,7.8-14.5,15.5-.4,3.4,2.3,4.5,5.2,3.5,3.4-1.2,6-3.9,7.7-7,1.7-3.3,2.5-6.9,3.2-10.5.2-.9-.6-1.7-1.5-1.5ZM202.1,62.6c-1.2.6-3.1,1.3-3.3-.5-.1-1.1.8-3,1.2-3.9,1.6-3.7,4.5-6.5,8-8.2-2.5,3.8-5.5,7.2-7.7,11.1-.1.2.1.4.3.2,3.3-3,6.2-6.8,8.7-10.6-.5,2.2-1.2,4.4-2.2,6.5-1.2,2.2-2.8,4.1-5,5.3Z"></path><path class="cls-1" d="M66.4,36.1c1,.2,1.7-.6,1.5-1.5-.7-3.6-1.5-7.2-3.2-10.5-1.6-3-4.1-5.7-7.3-6.9-2.9-1.1-6-.2-5.5,3.4.9,7.7,7.1,13.9,14.5,15.5ZM57.7,20c2.2,1.2,3.8,3.2,5,5.3,1,2.1,1.7,4.3,2.2,6.5-2.6-3.8-5.4-7.6-8.7-10.6-.2-.2-.4,0-.3.2,2.2,3.9,5.2,7.3,7.7,11.1-3.6-1.6-6.4-4.4-8-8.2-.5-1.1-.8-2.2-1.1-3.4-.5-2.4,2-1.7,3.2-1Z"></path><path class="cls-1" d="M131.9,46.5c-7.5,1.6-13.6,7.8-14.5,15.5-.4,3.4,2.3,4.5,5.2,3.5,3.4-1.2,6-3.9,7.7-7,1.7-3.3,2.5-6.9,3.2-10.5.2-.9-.6-1.7-1.5-1.5ZM123.1,62.6c-1.2.6-3.1,1.3-3.3-.5-.1-1.1.8-3,1.2-3.9,1.6-3.7,4.5-6.5,8-8.2-2.5,3.8-5.5,7.2-7.7,11.1-.1.2.1.4.3.2,3.3-3,6.2-6.8,8.7-10.6-.5,2.2-1.2,4.4-2.2,6.5-1.2,2.2-2.8,4.1-5,5.3Z"></path><path class="cls-1" d="M358.8,45.4c-8.3,2.5-17.9-.4-24.7-5.5,3-2.8,5.1-6.6,5.5-11.1.3-3.7-.3-8.1-2.4-11.2-2.1-3.1-6-4.3-9.3-2.2-3.2,2-4.2,6.3-4.5,9.8-.3,4.4,1,8.8,3.6,12.4.4.5.8,1.1,1.3,1.6-3,1.8-6.7,2.7-10.1,2.8-10.6.3-20.8-5.5-27.7-13.3-1.8-2-4.7,1-2.9,2.9,7.7,8.6,19.3,14.9,31.1,14.4,4.5-.2,9.1-1.6,12.9-4.1,2.7,2.1,5.8,3.7,9,4.9,6.1,2.4,12.8,3.1,19,.8,1.4-.5.8-2.7-.6-2.2ZM328.3,20.5c1.3-2.4,3.9-3,5.5-.5,1.5,2.4,1.9,5.9,1.6,8.7-.3,3.5-2,6.3-4.4,8.4-4-4.5-5.8-11.1-2.7-16.6Z"></path><path class="cls-1" d="M404.7,26.7c-5.8-4.6-13.2-6-20.4-5,5.4-2.6,9.5-7.9,10.3-14,.4-3.4-2.3-4.5-5.2-3.5-3.4,1.2-6,3.9-7.7,7-1.7,3.3-2.5,6.9-3.2,10.5,0,.5,0,.9.3,1.2-9,2.6-17.3,8.3-24.4,14.2-1.9,1.6.6,4.9,2.6,3.4,7.3-5.4,14.1-11.4,23-14.1,7.8-2.4,16.8-1.9,23.2,3.7,2.8,2.5,5,6,5.2,9.9.1,3.2-.9,7.9-3.8,9.7-2.7,1.7-7.4,2.1-9.6-.4-2.8-3.3-2.6-7.6.3-10.8.5-.5-.1-1.4-.8-1-5.9,3.2-5.2,12.3.2,15.7,2.8,1.7,6.5,1.4,9.5.4,3.4-1.1,5.3-3.7,6.5-7,2.7-7.3-.3-15-6.2-19.7ZM388.9,7.1c1.2-.7,3.1-1.3,3.3.5.1,1.1-.8,3-1.2,3.9-1.6,3.7-4.5,6.5-8,8.2,2.5-3.8,5.5-7.2,7.7-11.1.1-.2-.1-.4-.3-.2-3.3,3-6.2,6.8-8.7,10.6.5-2.2,1.2-4.4,2.2-6.5,1.2-2.2,2.8-4.1,5-5.3Z"></path><path class="cls-1" d="M301.1,27.4c7.5-1.6,13.6-7.8,14.5-15.5.4-3.4-2.3-4.5-5.2-3.5-3.4,1.2-6,3.9-7.7,7-1.7,3.3-2.5,6.9-3.2,10.5-.2.9.6,1.7,1.5,1.5ZM309.9,11.4c1.2-.7,3.1-1.3,3.3.5.1,1.1-.8,3-1.2,3.9-1.6,3.7-4.5,6.5-8,8.2,2.5-3.8,5.5-7.2,7.7-11.1.1-.2-.1-.4-.3-.2-3.3,3-6.2,6.8-8.7,10.6.5-2.2,1.2-4.4,2.2-6.5,1.2-2.2,2.8-4.1,5-5.3Z"></path><path class="cls-1" d="M301.1,46.5c-1-.2-1.7.6-1.5,1.5.7,3.6,1.5,7.2,3.2,10.5,1.6,3,4.1,5.7,7.3,6.9,2.9,1.1,6,.2,5.5-3.4-.9-7.7-7.1-13.9-14.5-15.5ZM309.9,62.6c-2.2-1.2-3.8-3.2-5-5.3-1-2.1-1.7-4.3-2.2-6.5,2.6,3.8,5.4,7.6,8.7,10.6.2.2.4,0,.3-.2-2.2-3.9-5.2-7.3-7.7-11.1,3.6,1.6,6.4,4.4,8,8.2.5,1.1.8,2.2,1.1,3.4.5,2.4-2,1.7-3.2,1Z"></path><path class="cls-1" d="M445.6,36.1c7.5-1.6,13.6-7.8,14.5-15.5.4-3.4-2.3-4.5-5.2-3.5-3.4,1.2-6,3.9-7.7,7-1.7,3.3-2.5,6.9-3.2,10.5-.2.9.6,1.7,1.5,1.5ZM454.3,20c1.2-.6,3.1-1.3,3.3.5.1,1.1-.8,3-1.2,3.9-1.6,3.7-4.5,6.5-8,8.2,2.5-3.8,5.5-7.2,7.7-11.1.1-.2-.1-.4-.3-.2-3.3,3-6.2,6.8-8.7,10.6.5-2.2,1.2-4.4,2.2-6.5,1.2-2.2,2.8-4.1,5-5.3Z"></path><path class="cls-1" d="M512,42.2c-.8-6.4-5.2-11.8-10.9-14.3,5.7-2.5,10.1-7.9,10.9-14.3.4-3.4-2.3-4.5-5.2-3.5-3.4,1.2-6,3.9-7.7,7-1.5,3-2.3,6.2-3,9.5-1.6-.6-3.1-1.3-5-1.6-1.9-.3-3.9-.3-5.8,0-3.7.4-7.2,1.7-10.3,3.7-6.6,4.1-11.3,10.5-18.6,13.6-12.7,5.6-28.7,2.9-38.6-7-1.6-1.6-4.2.9-2.5,2.5,7.5,7.5,18.2,11.4,28.8,11,0,.2,0,.4,0,.6.7,3.6,1.5,7.2,3.2,10.5,1.6,3,4.1,5.7,7.3,6.9,2.9,1.1,6,.2,5.5-3.4-.8-6.9-5.9-12.7-12.4-14.9,4.3-.6,8.5-1.8,12.4-3.8,5.4-2.8,9.6-7.4,14.3-11.2,3-2.5,6.3-4.3,10.2-5.2,3.4-.8,7.8-1.1,11.3-.2,0,0,0,0,0,0,.7,3.6,1.5,7.2,3.2,10.5,1.6,3,4.1,5.7,7.3,6.9,2.9,1.1,6,.2,5.5-3.4ZM456.5,59.7c.5,1.1.8,2.2,1.1,3.4.5,2.4-2,1.7-3.2,1-2.2-1.2-3.8-3.2-5-5.3-1-2.1-1.7-4.3-2.2-6.5,2.6,3.8,5.4,7.6,8.7,10.6.2.2.4,0,.3-.2-2.2-3.9-5.2-7.3-7.7-11.1,3.6,1.6,6.4,4.4,8,8.2ZM506.2,13c1.2-.7,3.1-1.3,3.3.5.1,1.1-.8,3-1.2,3.9-1.6,3.7-4.5,6.5-8,8.2,2.5-3.8,5.5-7.2,7.7-11.1.1-.2-.1-.4-.3-.2-3.3,3-6.2,6.8-8.7,10.6.5-2.2,1.2-4.4,2.2-6.5,1.2-2.2,2.8-4.1,5-5.3ZM506.2,42.8c-2.2-1.2-3.8-3.2-5-5.3-1-2.1-1.7-4.3-2.2-6.5,2.6,3.8,5.4,7.6,8.7,10.6.2.2.4,0,.3-.2-2.2-3.9-5.2-7.3-7.7-11.1,3.6,1.6,6.4,4.4,8,8.2.5,1.1.8,2.2,1.1,3.4.5,2.4-2,1.7-3.2,1Z"></path><path class="cls-1" d="M380.1,46.5c-1-.2-1.7.6-1.5,1.5.7,3.6,1.5,7.2,3.2,10.5,1.6,3,4.1,5.7,7.3,6.9,2.9,1.1,6,.2,5.5-3.4-.9-7.7-7.1-13.9-14.5-15.5ZM388.9,62.6c-2.2-1.2-3.8-3.2-5-5.3-1-2.1-1.7-4.3-2.2-6.5,2.6,3.8,5.4,7.6,8.7,10.6.2.2.4,0,.3-.2-2.2-3.9-5.2-7.3-7.7-11.1,3.6,1.6,6.4,4.4,8,8.2.5,1.1.8,2.2,1.1,3.4.5,2.4-2,1.7-3.2,1Z"></path></svg>